<?xml version="1.0" encoding="utf-8"?>
<!-- Generator: Adobe Illustrator 21.0.2, SVG Export Plug-In . SVG Version: 6.00 Build 0)  -->
<svg version="1.1" id="Layer_1" xmlns="http://www.w3.org/2000/svg" xmlns:xlink="http://www.w3.org/1999/xlink" x="0px" y="0px"
	 viewBox="0 0 489.7 489.7" style="enable-background:new 0 0 489.7 489.7;" xml:space="preserve">
<style type="text/css">
	.st0{fill:#C1C1C1;}
</style>
<g>
	<g>
		<path id="XMLID_1322_" class="st0" d="M188.2,140.1h116.1c3.9,0,7-3.1,7-7V64.7c0-3.8-3.1-7-7-7H188.2c-3.9,0-7,3.2-7,7v68.4
			C181.2,136.9,184.3,140.1,188.2,140.1z"/>
		<path d="M489.7,417.9V395c0-12.8-10.4-23.2-23.2-23.2h-17.2v-32c0-5-4.1-9.1-9.1-9.1h-49.3v-24.4h26.5c12.8,0,23.2-10.4,23.2-23.2
			v-34.7c0-12.8-10.4-23.2-23.2-23.2h-26.5v-38c0-5-4.1-9.1-9.1-9.1H255.2v-28.9h41.9c12.8,0,23.2-10.4,23.2-23.2V71.8
			c0-12.8-10.4-23.2-23.2-23.2H195.3c-12.8,0-23.2,10.4-23.2,23.2V126c0,12.8,10.4,23.2,23.2,23.2h41.9v28.9H107.9
			c-5,0-9.1,4.1-9.1,9.1v38H72.4c-12.8,0-23.2,10.4-23.2,23.2v34.7c0,12.8,10.4,23.2,23.2,23.2h26.5v24.4H49.5c-5,0-9.1,4.1-9.1,9.1
			v32H23.2C10.4,371.9,0,382.2,0,395.1v22.8c0,12.8,10.4,23.2,23.2,23.2h52.5c12.8,0,23.2-10.4,23.2-23.2V395
			c0-12.8-10.4-23.2-23.2-23.2H58.6v-23h98.7v23h-17.2c-12.8,0-23.2,10.4-23.2,23.2v22.9c0,12.8,10.4,23.2,23.2,23.2h52.5
			c12.8,0,23.2-10.4,23.2-23.2V395c0-12.8-10.4-23.2-23.2-23.2h-17.2v-32c0-5-4.1-9.1-9.1-9.1H117v-24.4h26.5
			c12.8,0,23.2-10.4,23.2-23.2v-34.7c0-12.8-10.4-23.2-23.2-23.2H117v-28.9h120.2v28.9h-27.8c-12.8,0-23.2,10.4-23.2,23.2V283
			c0,12.8,10.4,23.2,23.2,23.2h71.1c12.8,0,23.2-10.4,23.2-23.2v-34.7c0-12.8-10.4-23.2-23.2-23.2h-25.2v-28.9h117.6v28.9h-26.5
			c-12.8,0-23.2,10.4-23.2,23.2V283c0,12.8,10.4,23.2,23.2,23.2h26.5v24.4h-49.3c-5,0-9.1,4.1-9.1,9.1v32h-17.2
			c-12.8,0-23.2,10.4-23.2,23.2v22.9c0,12.8,10.4,23.2,23.2,23.2h52.5c12.8,0,23.2-10.4,23.2-23.2V395c0-12.8-10.4-23.2-23.2-23.2
			h-17.2v-23h98.7v23h-17.2c-12.8,0-23.2,10.4-23.2,23.2v22.9c0,12.8,10.4,23.2,23.2,23.2h52.5C479.3,441,489.7,430.6,489.7,417.9z
			 M190.2,126V71.8c0-2.7,2.3-5,5-5h101.9c2.7,0,5,2.3,5,5V126c0,2.7-2.3,5-5,5H195.3C192.5,131,190.2,128.7,190.2,126z M80.8,395
			v22.9c0,2.7-2.3,5-5,5H23.2c-2.7,0-5-2.3-5-5V395c0-2.7,2.3-5,5-5h52.5C78.5,389.9,80.8,392.1,80.8,395z M197.6,395v22.9
			c0,2.7-2.3,5-5,5h-52.5c-2.7,0-5-2.3-5-5V395c0-2.7,2.3-5,5-5h52.5C195.3,389.9,197.6,392.1,197.6,395z M148.5,248.3v34.7
			c0,2.7-2.3,5-5,5H72.4c-2.7,0-5-2.3-5-5v-34.7c0-2.7,2.3-5,5-5h71.1C146.2,243.3,148.5,245.6,148.5,248.3z M285.5,248.3v34.7
			c0,2.7-2.3,5-5,5h-71.1c-2.7,0-5-2.3-5-5v-34.7c0-2.7,2.3-5,5-5h71.1C283.2,243.3,285.5,245.6,285.5,248.3z M341.3,283v-34.7
			c0-2.7,2.3-5,5-5h71.1c2.7,0,5,2.3,5,5V283c0,2.7-2.3,5-5,5h-71.1C343.6,288.1,341.3,285.9,341.3,283z M354.8,395v22.9
			c0,2.7-2.3,5-5,5h-52.5c-2.7,0-5-2.3-5-5V395c0-2.7,2.3-5,5-5h52.5C352.5,389.9,354.8,392.1,354.8,395z M471.6,417.9
			c0,2.7-2.3,5-5,5h-52.5c-2.7,0-5-2.3-5-5V395c0-2.7,2.3-5,5-5h52.5c2.7,0,5,2.3,5,5V417.9z"/>
	</g>
</g>
</svg>
